<svg width="127" height="19" viewBox="0 0 127 19" fill="none" xmlns="http://www.w3.org/2000/svg">
<path d="M33.2815 15.7951H31.1845V3.67881H33.2815V15.7951Z" fill="#28313B"/>
<path d="M42.2023 12.6745C42.2023 12.1419 42.0137 11.7314 41.6364 11.4429C41.2647 11.1544 40.5907 10.8631 39.6143 10.5691C38.6379 10.2751 37.8612 9.94776 37.2842 9.58716C36.1802 8.89369 35.6282 7.98941 35.6282 6.87431C35.6282 5.89791 36.0249 5.09349 36.8182 4.46105C37.6171 3.8286 38.6517 3.51238 39.9222 3.51238C40.7654 3.51238 41.5171 3.66772 42.1773 3.97839C42.8375 4.28907 43.3562 4.73289 43.7335 5.30985C44.1107 5.88127 44.2993 6.51648 44.2993 7.2155H42.2023C42.2023 6.58306 42.0026 6.08931 41.6031 5.73425C41.2092 5.37365 40.6434 5.19335 39.9055 5.19335C39.2176 5.19335 38.6823 5.34036 38.2995 5.63439C37.9222 5.92842 37.7336 6.33896 37.7336 6.86599C37.7336 7.30981 37.9389 7.68151 38.3494 7.98109C38.7599 8.27512 39.4367 8.5636 40.3799 8.84654C41.323 9.12392 42.0802 9.44292 42.6517 9.80352C43.2231 10.1586 43.6419 10.5691 43.9082 11.0351C44.1745 11.4956 44.3077 12.0365 44.3077 12.6578C44.3077 13.6675 43.9193 14.4719 43.1426 15.0711C42.3715 15.6647 41.323 15.9615 39.9971 15.9615C39.1205 15.9615 38.3133 15.8006 37.5755 15.4789C36.8432 15.1515 36.2718 14.7022 35.8612 14.1308C35.4562 13.5593 35.2537 12.8936 35.2537 12.1336H37.3591C37.3591 12.8215 37.5866 13.3541 38.0415 13.7313C38.4964 14.1086 39.1483 14.2972 39.9971 14.2972C40.7294 14.2972 41.2786 14.1502 41.6447 13.8561C42.0164 13.5566 42.2023 13.1627 42.2023 12.6745Z" fill="#28313B"/>
<path d="M55.8248 10.0532C55.8248 11.2404 55.6195 12.2834 55.209 13.1821C54.7984 14.0753 54.2104 14.7632 53.4448 15.2459C52.6847 15.723 51.8082 15.9615 50.8152 15.9615C49.8332 15.9615 48.9567 15.723 48.1855 15.2459C47.4199 14.7632 46.8263 14.0781 46.4047 13.1904C45.9886 12.3028 45.7778 11.2792 45.7723 10.1197V9.43737C45.7723 8.2557 45.9803 7.21273 46.3964 6.30844C46.818 5.40416 47.4088 4.71347 48.1689 4.23636C48.9345 3.75371 49.811 3.51238 50.7985 3.51238C51.786 3.51238 52.6598 3.75094 53.4198 4.22804C54.1854 4.6996 54.7762 5.38197 55.1923 6.27516C55.6084 7.1628 55.8192 8.19745 55.8248 9.37912V10.0532ZM53.7194 9.42073C53.7194 8.07817 53.4642 7.04907 52.9538 6.33341C52.449 5.61775 51.7305 5.25992 50.7985 5.25992C49.8887 5.25992 49.1758 5.61775 48.6599 6.33341C48.1495 7.04352 47.8887 8.05043 47.8776 9.35415V10.0532C47.8776 11.3846 48.1356 12.4137 48.6515 13.1405C49.173 13.8672 49.8942 14.2306 50.8152 14.2306C51.7472 14.2306 52.4628 13.8756 52.9621 13.1655C53.467 12.4553 53.7194 11.4179 53.7194 10.0532V9.42073Z" fill="#28313B"/>
<path d="M72.4706 11.8507C72.3485 13.1433 71.8714 14.153 71.0392 14.8798C70.2071 15.601 69.1003 15.9616 67.7189 15.9616C66.7536 15.9616 65.902 15.7341 65.1642 15.2792C64.4319 14.8187 63.866 14.1669 63.4666 13.3236C63.0671 12.4804 62.8591 11.5012 62.8425 10.3861V9.25434C62.8425 8.11151 63.0449 7.10459 63.4499 6.2336C63.8549 5.3626 64.4347 4.69132 65.1891 4.21977C65.9492 3.74821 66.8257 3.51243 67.8188 3.51243C69.1558 3.51243 70.232 3.87581 71.0476 4.60256C71.8631 5.32931 72.3374 6.35565 72.4706 7.68156H70.3735C70.2737 6.81056 70.0185 6.18367 69.6079 5.80087C69.2029 5.41253 68.6066 5.21836 67.8188 5.21836C66.9034 5.21836 66.1988 5.554 65.7051 6.22527C65.2169 6.891 64.9672 7.87018 64.9561 9.1628V10.2363C64.9561 11.5456 65.1891 12.5442 65.6552 13.2321C66.1267 13.92 66.8146 14.264 67.7189 14.264C68.5455 14.264 69.1669 14.0781 69.583 13.7064C69.999 13.3347 70.2626 12.7161 70.3735 11.8507H72.4706Z" fill="#28313B"/>
<path d="M78.1292 15.9616C76.8477 15.9616 75.8075 15.5593 75.0086 14.7549C74.2153 13.945 73.8186 12.8687 73.8186 11.5261V11.2765C73.8186 10.3778 73.9906 9.57611 74.3346 8.87155C74.6841 8.16144 75.1723 7.60944 75.7992 7.21555C76.4261 6.82166 77.1251 6.62471 77.8962 6.62471C79.1223 6.62471 80.0682 7.01583 80.7339 7.79806C81.4052 8.58029 81.7408 9.68707 81.7408 11.1184V11.9339H75.8574C75.9185 12.6773 76.1653 13.2654 76.5981 13.6981C77.0363 14.1308 77.5856 14.3472 78.2458 14.3472C79.1722 14.3472 79.9267 13.9727 80.5092 13.2238L81.5994 14.264C81.2388 14.8021 80.7561 15.2209 80.1514 15.5205C79.5522 15.8145 78.8782 15.9616 78.1292 15.9616ZM77.8879 8.24743C77.3331 8.24743 76.8838 8.4416 76.5398 8.82994C76.2014 9.21828 75.9851 9.75919 75.8907 10.4527H79.7436V10.3029C79.6993 9.62604 79.519 9.11565 79.2027 8.77169C78.8865 8.42218 78.4482 8.24743 77.8879 8.24743Z" fill="#28313B"/>
<path d="M88.032 8.63854C87.7657 8.59416 87.4911 8.57197 87.2081 8.57197C86.2817 8.57197 85.6575 8.92702 85.3358 9.63714V15.7951H83.3136V6.79114H85.2442L85.2942 7.79806C85.7824 7.01583 86.4592 6.62471 87.3246 6.62471C87.6131 6.62471 87.8517 6.66355 88.0403 6.74121L88.032 8.63854Z" fill="#28313B"/>
<path d="M92.2593 4.60256V6.79114H93.8488V8.28903H92.2593V13.3153C92.2593 13.6592 92.3259 13.9089 92.4591 14.0642C92.5978 14.214 92.8419 14.2889 93.1914 14.2889C93.4244 14.2889 93.6601 14.2612 93.8987 14.2057V15.7702C93.4382 15.8978 92.9944 15.9616 92.5672 15.9616C91.0139 15.9616 90.2372 15.1044 90.2372 13.3902V8.28903H88.7559V6.79114H90.2372V4.60256H92.2593Z" fill="#28313B"/>
<path d="M97.5519 15.7951H95.5297V6.79114H97.5519V15.7951ZM95.4049 4.45277C95.4049 4.1421 95.502 3.88413 95.6962 3.67886C95.8959 3.4736 96.1788 3.37096 96.545 3.37096C96.9111 3.37096 97.1941 3.4736 97.3938 3.67886C97.5935 3.88413 97.6934 4.1421 97.6934 4.45277C97.6934 4.7579 97.5935 5.01309 97.3938 5.21836C97.1941 5.41808 96.9111 5.51794 96.545 5.51794C96.1788 5.51794 95.8959 5.41808 95.6962 5.21836C95.502 5.01309 95.4049 4.7579 95.4049 4.45277Z" fill="#28313B"/>
<path d="M100.298 15.7951V8.28903H98.925V6.79114H100.298V6.17535C100.304 5.47078 100.453 4.86608 100.747 4.36123C101.041 3.85639 101.457 3.47637 101.996 3.22117C102.534 2.96598 103.18 2.83838 103.935 2.83838C104.378 2.83838 104.803 2.88553 105.208 2.97985C105.618 3.07416 106.043 3.19343 106.481 3.33768L106.173 5.01032C105.407 4.74403 104.708 4.61088 104.076 4.61088C103.46 4.61088 103.014 4.7468 102.736 5.01864C102.459 5.28493 102.32 5.68714 102.32 6.22527V6.79114H104.093V8.28903H102.32V15.7951H100.298ZM107.438 15.7951H105.416V6.79114H107.438V15.7951Z" fill="#28313B"/>
<path d="M113.646 15.9616C112.364 15.9616 111.324 15.5593 110.525 14.7549C109.732 13.945 109.335 12.8687 109.335 11.5261V11.2765C109.335 10.3778 109.507 9.57611 109.851 8.87155C110.201 8.16144 110.689 7.60944 111.316 7.21555C111.943 6.82166 112.642 6.62471 113.413 6.62471C114.639 6.62471 115.585 7.01583 116.251 7.79806C116.922 8.58029 117.257 9.68707 117.257 11.1184V11.9339H111.374C111.435 12.6773 111.682 13.2654 112.115 13.6981C112.553 14.1308 113.102 14.3472 113.762 14.3472C114.689 14.3472 115.443 13.9727 116.026 13.2238L117.116 14.264C116.755 14.8021 116.273 15.2209 115.668 15.5205C115.069 15.8145 114.395 15.9616 113.646 15.9616ZM113.405 8.24743C112.85 8.24743 112.4 8.4416 112.056 8.82994C111.718 9.21828 111.502 9.75919 111.407 10.4527H115.26V10.3029C115.216 9.62604 115.036 9.11565 114.719 8.77169C114.403 8.42218 113.965 8.24743 113.405 8.24743Z" fill="#28313B"/>
<path d="M118.456 11.2266C118.456 9.83963 118.778 8.72731 119.421 7.8896C120.065 7.04634 120.927 6.62471 122.009 6.62471C122.963 6.62471 123.734 6.95758 124.323 7.62331V3.01313H126.345V15.7951H124.514L124.414 14.8631C123.809 15.5954 123.002 15.9616 121.992 15.9616C120.938 15.9616 120.084 15.5372 119.429 14.6884C118.78 13.8395 118.456 12.6856 118.456 11.2266ZM120.478 11.4013C120.478 12.3167 120.653 13.0324 121.002 13.5483C121.357 14.0587 121.859 14.3139 122.508 14.3139C123.335 14.3139 123.94 13.945 124.323 13.2071V9.36252C123.951 8.64132 123.352 8.28071 122.525 8.28071C121.87 8.28071 121.366 8.54146 121.011 9.06294C120.655 9.57888 120.478 10.3583 120.478 11.4013Z" fill="#28313B"/>
<g clip-path="url(#clip0)">
<path d="M22.3674 7.27683C22.1512 6.70928 21.7072 6.20257 21.1669 5.83722C19.6069 4.84669 17.2295 4.77615 15.6222 5.67164C14.7456 6.11857 14.1694 7.00302 13.9901 7.91385C13.6648 9.41027 13.7488 11.1907 14.9017 12.3124C16.246 13.4908 18.2026 13.7512 19.9424 13.2671C20.025 13.2512 20.287 13.1852 20.4677 13.0894L20.5185 13.0676C21.0589 12.843 21.5742 12.4774 21.959 11.9823C22.8469 10.684 22.9078 8.73879 22.3674 7.27683ZM19.5347 10.6372C19.4734 10.921 19.2825 11.215 18.9815 11.3216C18.5022 11.5324 17.8539 11.474 17.4099 11.2273C17.0376 10.967 16.9896 10.5311 16.9417 10.1186C16.9054 9.30553 16.8467 8.44451 17.0745 7.70115C17.253 7.24075 17.7454 7.12229 18.1907 7.08756C18.6584 7.08756 19.1137 7.1589 19.4026 7.5361C19.5824 7.80669 19.5714 8.16074 19.6069 8.47951C19.5942 9.15126 19.6546 9.95251 19.5347 10.6372ZM5.31175 11.3695C4.91543 11.3453 4.47146 11.38 4.0878 11.3329L4.09965 7.19256L4.12388 7.1581L5.31175 7.14652C5.32414 6.4745 5.33598 5.75375 5.29937 5.14124L0.775373 5.12858L0.0303936 5.14151C0.0185471 5.76614 0.0185471 6.49658 0.0303936 7.13413C0.438827 7.14679 0.82222 7.13413 1.21854 7.17102V11.1808L1.20696 11.3455L0.0185471 11.3698C-0.00622307 12.0182 -0.00622307 12.6674 0.0185471 13.3158H5.31148L5.31175 11.3695ZM18.6336 14.1995C18.1301 14.9197 17.4939 15.6154 16.7993 16.1565C16.774 16.1934 16.7021 16.1794 16.6792 16.1455C16.3782 15.9573 16.0543 15.8033 15.7657 15.6154C16.1502 15.1558 16.5225 14.6959 16.8106 14.1868H16.4372C16.1389 14.6249 15.826 15.0844 15.4302 15.4724C14.9017 15.2605 14.4219 15.0721 13.8818 14.9294L13.8218 14.8844C13.9058 14.6461 14.0614 14.4224 14.1091 14.1863H13.7852L13.4613 14.8236C12.754 14.6704 11.9735 14.5869 11.2533 14.5403C11.2169 14.4345 11.2646 14.281 11.2169 14.1863H10.9049C10.8801 14.3282 10.941 14.435 10.8688 14.5527C10.1246 14.5869 9.4047 14.6704 8.70926 14.8133L8.38402 14.1863C8.26529 14.1863 8.13174 14.1637 8.04882 14.1989L8.34821 14.8949L8.3124 14.9294C7.77448 15.085 7.24561 15.2703 6.72821 15.4845L6.68055 15.4603C6.34374 15.0947 6.01958 14.6954 5.75519 14.2942C5.69568 14.0926 5.45552 14.2105 5.32333 14.1868C5.61034 14.7064 5.99561 15.1658 6.37901 15.6383C6.05512 15.8275 5.7323 16.0386 5.39468 16.1934C4.66052 15.6343 4.02053 14.9613 3.49898 14.2C3.35467 14.1768 3.25963 14.1873 3.11451 14.2C3.97876 15.5446 5.32333 16.7236 6.72767 17.4195C6.72767 17.4195 6.72767 17.409 6.74059 17.409C6.75083 17.409 6.77479 17.4308 6.75083 17.4432C7.69962 17.9034 8.70845 18.2334 9.77571 18.3756C13.4608 18.8586 16.9778 17.2908 19.017 14.2C18.8896 14.1869 18.7611 14.1867 18.6336 14.1995ZM13.6298 15.2608L13.6651 15.2371C14.1826 15.355 14.6737 15.5203 15.13 15.7438C14.7456 16.1792 14.2534 16.5574 13.7978 16.8757C13.5221 17.0402 13.2451 17.219 12.9567 17.3595L12.4417 17.1355L12.477 17.0539C12.9099 16.4764 13.2941 15.886 13.6298 15.2608ZM11.2646 14.9067C11.9493 14.9197 12.6337 14.9902 13.2688 15.1429L13.2814 15.1787C12.946 15.8149 12.5249 16.4296 12.0696 17.0063C11.8644 17.0305 11.6733 16.9489 11.4695 16.9363L11.2643 16.912C11.2409 16.216 11.2282 15.6027 11.2646 14.9067ZM8.94915 15.1189C9.57324 15.001 10.221 14.9067 10.8928 14.9067L10.9052 16.9021C10.6526 16.9591 10.3766 16.9591 10.1365 17.0197C9.64432 16.4403 9.23669 15.8149 8.88911 15.1658L8.94915 15.1189ZM7.01575 15.7565C7.48504 15.5316 7.97639 15.3655 8.47987 15.2368L8.5286 15.2492C8.87565 15.8981 9.30831 16.5109 9.74017 17.1242C9.57351 17.2192 9.36835 17.276 9.20088 17.3719C8.38923 16.9709 7.65067 16.4365 7.01602 15.7909V15.7565H7.01575ZM8.56468 17.773C7.55638 17.5127 6.61944 17.0647 5.75546 16.4524V16.4158C6.04354 16.2405 6.3327 16.0513 6.64367 15.9202C7.32834 16.5943 8.03589 17.1016 8.80403 17.584C8.74426 17.6549 8.64841 17.7259 8.56468 17.773ZM13.0171 17.9254C11.7452 18.1984 10.3282 18.2089 9.05657 17.9028C9.03234 17.8441 9.11661 17.8315 9.15242 17.797C10.2687 17.0768 12.0082 17.0768 13.1016 17.8544C13.1371 17.9254 13.0413 17.9028 13.0171 17.9254ZM14.1697 17.5964L13.6056 17.7728C13.5092 17.7257 13.4258 17.6549 13.3409 17.5838L13.3652 17.5477C14.1336 17.1013 14.8293 16.5572 15.4897 15.9086C15.8139 16.0381 16.1262 16.216 16.4151 16.4156C15.7423 16.9489 14.9618 17.3011 14.1697 17.5964ZM3.47555 4.23256C3.77243 3.82172 4.09718 3.43175 4.4475 3.06542C4.75847 2.7706 5.04763 2.48764 5.38418 2.2744C5.69649 2.47471 6.04408 2.64164 6.34401 2.82957C5.97219 3.28727 5.58799 3.74928 5.31202 4.24333C5.39548 4.28022 5.55218 4.26864 5.67253 4.24333C5.97219 3.80771 6.29528 3.37154 6.68082 2.98196C7.19561 3.17123 7.70043 3.371 8.22921 3.51316L8.27579 3.56001L7.97693 4.24333C8.1094 4.26864 8.1934 4.25626 8.32452 4.24333C8.43221 4.0441 8.51568 3.82063 8.63576 3.61897C9.33281 3.77297 10.0651 3.85509 10.8093 3.87798C10.9046 3.96171 10.833 4.13779 10.8691 4.24333H11.193C11.2282 4.12756 11.1809 3.99617 11.2282 3.89117C11.925 3.85455 12.6568 3.78374 13.3313 3.61843L13.3897 3.63082L13.7138 4.24279C13.8221 4.24279 13.9658 4.2681 14.0498 4.21856L13.7491 3.53632L13.7741 3.51262C14.3253 3.371 14.8422 3.15884 15.3702 2.94695C15.7434 3.336 16.0904 3.79586 16.4035 4.24252C16.5349 4.24252 16.6671 4.25545 16.7632 4.21829C16.615 3.95498 16.4421 3.70634 16.2468 3.47574C16.0883 3.24986 15.9114 3.03743 15.718 2.84061V2.77949L16.5583 2.29675L16.6795 2.24963C17.4102 2.80275 18.0497 3.46704 18.5746 4.21829C18.7187 4.21829 18.839 4.26783 18.9594 4.20833C17.3493 1.80431 14.6974 0.257543 11.8303 0.0348836L11.8176 0.0577688L11.7931 0.0348836C11.4695 0.000151995 11.0718 -0.0135791 10.7242 0.0211525C10.5926 0.0109215 10.437 0.0211525 10.2805 0.0348836C7.40049 0.257543 4.74824 1.73269 3.09108 4.24387C3.21116 4.23256 3.3552 4.28049 3.47555 4.23256ZM8.45725 3.19627L8.40933 3.2065C7.91662 3.07807 7.43603 2.92326 6.97995 2.72349L7.0031 2.65268C7.66327 2.02778 8.35925 1.50842 9.12738 1.10833C9.30831 1.17914 9.48816 1.23757 9.66801 1.3213L9.63274 1.41338C9.17585 1.98093 8.81668 2.59291 8.45725 3.19627ZM10.8448 3.5137C10.5096 3.56082 10.2094 3.5032 9.87209 3.47708C9.54955 3.4297 9.14057 3.3955 8.81668 3.28781C9.16481 2.64218 9.57351 2.01593 10.0651 1.43949L10.8335 1.54423C10.8691 2.15647 10.8448 2.86457 10.8448 3.5137ZM11.2167 3.52635C11.193 2.8993 11.2054 2.2044 11.2167 1.55554C11.4576 1.52107 11.7204 1.48446 11.9611 1.44973C12.429 2.03855 12.8862 2.64218 13.1985 3.28781C12.5496 3.44482 11.8844 3.52489 11.2167 3.52635ZM15.0466 2.69953C14.5776 2.89903 14.097 3.08803 13.5816 3.19627C13.2098 2.5711 12.8019 1.9462 12.3445 1.3423C12.5128 1.24995 12.7179 1.17914 12.8975 1.08518C13.6791 1.47396 14.4343 2.02778 15.0697 2.66264L15.0466 2.69953ZM13.5092 0.682938C14.5175 0.943021 15.4658 1.39049 16.33 2.00382L16.3061 2.05093L15.4787 2.51025H15.4176C14.7824 1.87566 14.0385 1.3213 13.2814 0.883789C13.3054 0.801133 13.426 0.741632 13.5092 0.682938ZM13.0297 0.564473V0.589513C11.9848 1.3423 10.2929 1.41338 9.18931 0.7174C9.12738 0.670284 9.00892 0.647399 8.99599 0.564743C10.2689 0.271274 11.7683 0.247581 13.0297 0.564473ZM5.7078 2.02778C6.46463 1.47396 7.30438 1.06122 8.19286 0.777979C8.22921 0.741093 8.25236 0.706362 8.29975 0.706362V0.730593C8.3956 0.753747 8.46802 0.64686 8.55175 0.716862C8.62418 0.777979 8.70899 0.824557 8.76822 0.88325C8.02459 1.3423 7.29199 1.88589 6.61971 2.54498C6.29555 2.42921 5.99669 2.25125 5.70753 2.05093L5.7078 2.02778ZM10.8572 11.4616C9.72913 11.7688 8.5041 11.5345 7.68831 10.684C7.59273 10.5661 7.53215 10.4256 7.43577 10.3082L5.81603 10.3195C5.79046 11.2745 5.77915 12.3716 5.81603 13.3156L7.61562 13.304L7.63958 12.7375C7.84447 12.8317 8.04882 12.9494 8.25236 13.0552C9.50055 13.5748 11.1074 13.6928 12.344 13.0552C13.2448 12.5612 13.7251 11.6062 13.5927 10.5779C13.4613 9.57666 12.5007 8.66798 11.5292 8.42109L8.62391 7.58295L8.40906 7.47633C8.31294 7.39449 8.25263 7.28895 8.27605 7.1581C8.5041 6.76986 9.03288 6.88778 9.42893 6.89828C10.2689 7.01648 11.1329 7.29945 11.6254 8.0665C12.1528 8.0665 12.7648 8.07673 13.3404 8.05412C13.3649 7.08729 13.331 6.23865 13.3167 5.25943C12.7766 5.24705 12.1162 5.24705 11.5769 5.27182C11.5527 5.41209 11.6001 5.61187 11.54 5.75402L10.9884 5.45894C9.66747 4.90485 7.81889 4.84696 6.61917 5.70798C5.83865 6.27311 5.5993 7.28841 5.80338 8.18443C5.95873 9.03226 6.77479 9.65796 7.55531 9.95197C8.62337 10.3289 9.73909 10.6019 10.8212 10.967C10.9283 11.0149 11.0721 11.1218 11.0489 11.2513C11.0495 11.356 10.9407 11.4166 10.8572 11.4616Z" fill="#28313B"/>
</g>
<defs>
<clipPath id="clip0">
<rect width="22.7134" height="18.4614" fill="white"/>
</clipPath>
</defs>
</svg>
