<svg width="16" height="15" viewBox="0 0 16 15" fill="none" xmlns="http://www.w3.org/2000/svg">
<path fill-rule="evenodd" clip-rule="evenodd" d="M2.46965 3.76455C3.49392 3.76455 4.32429 3.0073 4.32429 2.07215C4.32429 1.13617 3.49392 0.37793 2.46965 0.37793C1.44438 0.37793 0.614014 1.13617 0.614014 2.07215C0.614014 3.0073 1.44438 3.76455 2.46965 3.76455Z" fill="#0E76A8"/>
<path fill-rule="evenodd" clip-rule="evenodd" d="M1.03906 14.6513H4.3668V5.05371H1.03906V14.6513Z" fill="#0E76A8"/>
<path fill-rule="evenodd" clip-rule="evenodd" d="M9.03737 9.31358C9.03737 8.21295 9.55811 7.13664 10.8032 7.13664C12.0484 7.13664 12.3545 8.21295 12.3545 9.28726V14.5289H15.6674V9.07296C15.6674 5.2824 13.4268 4.62891 12.0484 4.62891C10.6712 4.62891 9.91155 5.09474 9.03737 6.2235V4.93141H5.71509V14.5289H9.03737V9.31358Z" fill="#0E76A8"/>
</svg>
