<svg width="16" height="13" viewBox="0 0 16 13" fill="none" xmlns="http://www.w3.org/2000/svg">
<path fill-rule="evenodd" clip-rule="evenodd" d="M14.363 3.23538C14.369 3.37831 14.371 3.52124 14.371 3.65767C14.371 7.9975 11.0696 13 5.03181 13C3.24242 12.9991 1.49273 12.4862 0 11.5252C0.259847 11.5536 0.521027 11.5687 0.782489 11.5707C2.26747 11.5707 3.7072 11.0729 4.8597 10.1609C3.44033 10.1269 2.20334 9.21025 1.79112 7.88706C1.995 7.92631 2.20235 7.94589 2.41017 7.94553C2.70346 7.94654 2.99541 7.90717 3.27738 7.82859C1.72728 7.50059 0.626797 6.15749 0.642402 4.61269V4.57371C1.09834 4.8227 1.60835 4.96296 2.13067 4.98301C0.683352 3.99391 0.243704 2.09623 1.1147 0.597701C2.75677 2.63742 5.2228 3.88776 7.88026 4.02799C7.8237 3.78277 7.79528 3.53219 7.79554 3.28086C7.77181 1.49205 9.24151 0.0231725 11.0783 0C11.9903 0.00041649 12.8599 0.375489 13.4731 1.03298C14.2111 0.891176 14.9174 0.622805 15.5591 0.24038C15.3189 0.99515 14.8054 1.63928 14.1142 2.05297C14.766 1.97696 15.4021 1.80386 16 1.53973C15.5617 2.19485 15.0074 2.76898 14.363 3.23538Z" fill="#1DA1F2"/>
</svg>
