<svg width="18" height="18" viewBox="0 0 18 18" fill="none" xmlns="http://www.w3.org/2000/svg">
<path d="M8.99442 17.8453H8.99073C7.49794 17.8448 6.03113 17.4703 4.72834 16.7597L0 18L1.26538 13.378C0.484834 12.0253 0.0741119 10.4909 0.0747812 8.9189C0.0767379 4.00106 4.07801 0 8.99434 0C11.3804 0.0010298 13.6199 0.929915 15.3039 2.61588C16.9879 4.30176 17.9148 6.54271 17.9138 8.92594C17.9119 13.8427 13.9122 17.8433 8.99442 17.8453ZM4.94742 15.1449L5.21813 15.3056C6.35636 15.981 7.66112 16.3384 8.99142 16.339H8.99442C13.0805 16.339 16.4062 13.0132 16.4078 8.92542C16.4086 6.9445 15.6382 5.08193 14.2385 3.68062C12.8389 2.27931 10.9775 1.50721 8.99734 1.50652C4.90808 1.50652 1.58236 4.83194 1.58074 8.91942C1.58016 10.3202 1.97211 11.6844 2.71421 12.8648L2.89048 13.1453L2.14155 15.881L4.94742 15.1449ZM13.488 11.047C13.4323 10.954 13.2837 10.8982 13.0609 10.7866C12.838 10.6751 11.7423 10.136 11.538 10.0615C11.3337 9.98719 11.1851 9.95004 11.0365 10.1731C10.888 10.3962 10.4609 10.8982 10.3309 11.047C10.2008 11.1957 10.0708 11.2143 9.84805 11.1027C9.62518 10.9912 8.90706 10.7559 8.05578 9.99655C7.39323 9.40557 6.94595 8.67578 6.81595 8.45266C6.68595 8.22953 6.80209 8.10896 6.91366 7.99783C7.01393 7.89793 7.13655 7.73746 7.24797 7.60736C7.3594 7.47726 7.39654 7.38423 7.47083 7.2356C7.54511 7.08679 7.50798 6.95669 7.45225 6.84513C7.39654 6.73357 6.95083 5.63656 6.76511 5.19031C6.58419 4.75573 6.40047 4.81461 6.26367 4.80774C6.13382 4.80122 5.98509 4.79985 5.83653 4.79985C5.68796 4.79985 5.4465 4.85563 5.24222 5.07875C5.03794 5.30188 4.4622 5.84107 4.4622 6.93798C4.4622 8.03498 5.26078 9.09474 5.37222 9.24346C5.48365 9.39227 6.94374 11.6433 9.17944 12.6087C9.71117 12.8383 10.1263 12.9754 10.45 13.0781C10.9838 13.2478 11.4697 13.2239 11.8537 13.1665C12.2819 13.1025 13.1723 12.6274 13.3581 12.1068C13.5437 11.5861 13.5437 11.1399 13.488 11.047Z" fill="#128C7E"/>
</svg>
